<?xml version="1.0" encoding="UTF-8" standalone="no"?>
<svg
   xmlns:dc="http://purl.org/dc/elements/1.1/"
   xmlns:cc="http://creativecommons.org/ns#"
   xmlns:rdf="http://www.w3.org/1999/02/22-rdf-syntax-ns#"
   xmlns:svg="http://www.w3.org/2000/svg"
   xmlns="http://www.w3.org/2000/svg"
   xmlns:sodipodi="http://sodipodi.sourceforge.net/DTD/sodipodi-0.dtd"
   xmlns:inkscape="http://www.inkscape.org/namespaces/inkscape"
   inkscape:version="1.0rc1 (09960d6f05, 2020-04-09)"
   sodipodi:docname="Craigslist.svg"
   id="svg4535"
   height="23.299646"
   width="18.472414"
   version="1.0">
  <metadata
     id="metadata8">
    <rdf:RDF>
      <cc:Work
         rdf:about="">
        <dc:format>image/svg+xml</dc:format>
        <dc:type
           rdf:resource="http://purl.org/dc/dcmitype/StillImage" />
      </cc:Work>
    </rdf:RDF>
  </metadata>
  <sodipodi:namedview
     inkscape:current-layer="svg4535"
     inkscape:window-maximized="0"
     inkscape:window-y="23"
     inkscape:window-x="26"
     inkscape:cy="10.870343"
     inkscape:cx="87.600312"
     inkscape:zoom="6.3469514"
     showgrid="false"
     id="namedview6"
     inkscape:window-height="991"
     inkscape:window-width="1517"
     inkscape:pageshadow="2"
     inkscape:pageopacity="0"
     guidetolerance="10"
     gridtolerance="10"
     objecttolerance="10"
     borderopacity="1"
     bordercolor="#666666"
     pagecolor="#ffffff" />
  <defs
     id="defs4537">
    <inkscape:path-effect
       message="Use fill-rule evenodd on &lt;b&gt;fill and stroke&lt;/b&gt; dialog if no flatten result after convert clip to paths."
       hide_clip="false"
       flatten="false"
       inverse="true"
       lpeversion="1"
       is_visible="true"
       id="path-effect34"
       effect="powerclip" />
  </defs>
  <g
     id="layer1"
     transform="translate(-176.55906,-281.82963)">
    <path
       sodipodi:nodetypes="cccssccccsccccccscsccc"
       inkscape:connector-curvature="0"
       style="font-style:normal;font-weight:normal;font-size:706.66px;line-height:125%;font-family:'Bitstream Vera Sans';fill:#800080;fill-opacity:1;stroke:none;stroke-width:1px;stroke-linecap:butt;stroke-linejoin:miter;stroke-opacity:1"
       id="text4545"
       transform="scale(0.998592,1.00141)"
       d="m 195.30647,295.69004 c -0.59108,2.89138 -1.74923,5.11583 -3.47446,6.67334 -1.72525,1.55751 -3.6342,2.33626 -5.72685,2.33627 -2.49203,-1e-5 -4.66455,-1.04633 -6.51759,-3.13899 -1.85304,-2.09265 -2.77956,-4.92013 -2.77956,-8.48245 0,-3.45048 1.02636,-6.254 3.07908,-8.41057 2.05272,-2.15653 4.51678,-3.23481 7.3922,-3.23483 2.15654,2e-5 3.9297,0.57111 5.3195,1.71326 1.38976,1.1422 2.08465,2.3283 2.08467,3.55832 -2e-5,0.60705 -0.19571,1.09826 -0.58706,1.47364 -0.3914,0.37542 -0.93852,0.56312 -1.64138,0.56311 -0.94251,1e-5 -1.65337,-0.3035 -2.13259,-0.91055 -0.27158,-0.33545 -0.4513,-0.97443 -0.53914,-1.91694 -0.0879,-0.94247 -0.41136,-1.66132 -0.97045,-2.15655 -0.55912,-0.47922 -1.33388,-0.71883 -2.32429,-0.71886 -1.59746,3e-5 -2.8834,0.59108 -3.85784,1.77317 -1.29394,1.56552 -1.9409,3.63421 -1.9409,6.20609 0,2.61983 0.64297,4.93213 1.92892,6.93692 1.28594,2.0048 3.02316,3.0072 5.21168,3.0072 1.56548,0 2.97124,-0.53515 4.21726,-1.60544 0.87858,-0.73482 1.73321,-2.06869 2.56391,-4.00161 z" />
  </g>
</svg>
