<?xml version="1.0" encoding="UTF-8"?>
<svg width="176.37" height="176.37" version="1.1" viewBox="0 0 176.37495 176.37495" xml:space="preserve" xmlns="http://www.w3.org/2000/svg" xmlns:cc="http://creativecommons.org/ns#" xmlns:dc="http://purl.org/dc/elements/1.1/" xmlns:rdf="http://www.w3.org/1999/02/22-rdf-syntax-ns#"><metadata><rdf:RDF><cc:Work rdf:about=""><dc:format>image/svg+xml</dc:format><dc:type rdf:resource="http://purl.org/dc/dcmitype/StillImage"/></cc:Work></rdf:RDF></metadata>
<style type="text/css">
	.st0{fill:#0080FF;}
	.st1{fill-rule:evenodd;clip-rule:evenodd;fill:#0080FF;}
</style>
<g transform="translate(-88.8 -45.125)">
						<path class="st0" d="m177 221.5v-34.2c36.2 0 64.3-35.9 50.4-74-5.1-14-16.4-25.3-30.5-30.4-38.1-13.8-74 14.2-74 50.4h-34.1c0-57.7 55.8-102.7 116.3-83.8 26.4 8.3 47.5 29.3 55.7 55.7 18.9 60.5-26.1 116.3-83.8 116.3z"/>
					<polygon class="st1" points="143 153.4 177.1 153.4 177.1 153.4 177.1 187.5 143 187.5"/>
					<polygon class="st1" points="116.9 187.5 143 187.5 143 213.6 116.9 213.6"/>
					<path class="st1" d="m116.9 187.5h-21.9v-21.9h21.9z"/>
</g>
</svg>
