<?xml version="1.0" encoding="UTF-8"?>
<svg version="1.0" viewBox="0 0 267 267" xmlns="http://www.w3.org/2000/svg" xmlns:xlink="http://www.w3.org/1999/xlink">
<path d="m266.63 133.51c0-73.525-59.604-133.13-133.13-133.13-73.491 0-133.07 59.555-133.12 133.04v103.02c0.03955 16.684 13.571 30.191 30.266 30.191h102.91c73.5-0.02885 133.07-59.613 133.07-133.12" fill="#294172"/>
<path id="a" d="m77.126 142.1h47.845v47.845c0 26.41-21.434 47.845-47.845 47.845-26.41 0-47.845-21.434-47.845-47.845 0-26.41 21.434-47.845 47.845-47.845z" fill="none" stroke="#3c6eb4" stroke-width="29.21"/>
<use transform="matrix(-1 0 0 -1 249.71 284.29)" xlink:href="#a"/>
<path id="b" d="m139.61 127.53v62.346c0 34.504-27.975 62.48-62.481 62.48-5.2349 0-8.9565-0.59101-13.802-1.8577-7.066-1.8491-12.84-7.6425-12.843-14.381 0-8.1451 5.9124-14.07 14.75-14.07 4.2064 0 5.7327 0.80765 11.895 0.80765 18.192 0 32.948-14.735 32.98-32.927v-28.657c0-2.5678-2.0866-4.6482-4.6587-4.6482l-21.665-0.00428c-8.0721 0-14.594-6.4384-14.594-14.533-0.00431-8.1446 6.5888-14.557 14.748-14.557" fill="#fff"/>
<use transform="matrix(-1 0 0 -1 249.71 284.29)" xlink:href="#b"/>
</svg>
