<?xml version="1.0" encoding="UTF-8" standalone="no"?>
<svg
   xmlns:dc="http://purl.org/dc/elements/1.1/"
   xmlns:cc="http://creativecommons.org/ns#"
   xmlns:rdf="http://www.w3.org/1999/02/22-rdf-syntax-ns#"
   xmlns:svg="http://www.w3.org/2000/svg"
   xmlns="http://www.w3.org/2000/svg"
   xmlns:sodipodi="http://sodipodi.sourceforge.net/DTD/sodipodi-0.dtd"
   xmlns:inkscape="http://www.inkscape.org/namespaces/inkscape"
   inkscape:version="1.0rc1 (09960d6f05, 2020-04-09)"
   sodipodi:docname="icons8-amazon.svg"
   id="svg6"
   version="1.1"
   height="48px"
   width="48px"
   viewBox="0 0 48 48">
  <metadata
     id="metadata12">
    <rdf:RDF>
      <cc:Work
         rdf:about="">
        <dc:format>image/svg+xml</dc:format>
        <dc:type
           rdf:resource="http://purl.org/dc/dcmitype/StillImage" />
      </cc:Work>
    </rdf:RDF>
  </metadata>
  <defs
     id="defs10" />
  <sodipodi:namedview
     inkscape:current-layer="svg6"
     inkscape:window-maximized="0"
     inkscape:window-y="23"
     inkscape:window-x="26"
     inkscape:cy="23.939547"
     inkscape:cx="24"
     inkscape:zoom="16.541667"
     showgrid="false"
     id="namedview8"
     inkscape:window-height="991"
     inkscape:window-width="1517"
     inkscape:pageshadow="2"
     inkscape:pageopacity="0"
     guidetolerance="10"
     gridtolerance="10"
     objecttolerance="10"
     borderopacity="1"
     bordercolor="#666666"
     pagecolor="#ffffff" />
  <path
     id="path2"
     d="M39.6,39c-4.2,3.1-10.5,5-15.6,5c-7.3,0-13.8-2.9-18.8-7.4c-0.4-0.4,0-0.8,0.4-0.6c5.4,3.1,11.5,4.9,18.3,4.9c4.6,0,10.4-1,15.1-3C39.7,37.7,40.3,38.5,39.6,39z M41.1,36.9c-0.5-0.7-3.5-0.3-4.8-0.2c-0.4,0-0.5-0.3-0.1-0.6c2.3-1.7,6.2-1.2,6.6-0.6c0.4,0.6-0.1,4.5-2.3,6.3c-0.3,0.3-0.7,0.1-0.5-0.2C40.5,40.4,41.6,37.6,41.1,36.9z"
     fill="#FFB300" />
  <path
     style="fill:#ffffff"
     id="path4"
     d="M36.9,29.8c-1-1.3-2-2.4-2-4.9v-8.3c0-3.5,0-6.6-2.5-9c-2-1.9-5.3-2.6-7.9-2.6C19,5,14.2,7.2,13,13.4c-0.1,0.7,0.4,1,0.8,1.1l5.1,0.6c0.5,0,0.8-0.5,0.9-1c0.4-2.1,2.1-3.1,4.1-3.1c1.1,0,3.2,0.6,3.2,3v3c-3.2,0-6.6,0-9.4,1.2c-3.3,1.4-5.6,4.3-5.6,8.6c0,5.5,3.4,8.2,7.8,8.2c3.7,0,5.9-0.9,8.8-3.8c0.9,1.4,1.3,2.2,3,3.7c0.4,0.2,0.9,0.2,1.2-0.1l0,0c1-0.9,2.9-2.6,4-3.5C37.4,30.9,37.3,30.3,36.9,29.8z M27,22.1L27,22.1c0,2-0.1,6.9-5,6.9c-3,0-3-3-3-3c0-4.5,4.2-5,8-5V22.1z"
     fill="#37474F" />
</svg>
